<svg data-v-70b83f88="" version="1.0" xmlns="http://www.w3.org/2000/svg" xmlns:xlink="http://www.w3.org/1999/xlink" width="100%" height="100%" viewBox="0 0 340.000000 250.000000" preserveAspectRatio="xMidYMid meet" color-interpolation-filters="sRGB" style="margin: auto;">   <g data-v-70b83f88="" class="iconmbgsvg" transform="translate(80.54000093370676,65.64076232910156)"><g fill="#000000" hollow-target="textNormalTran"><g opacity="0.55" transform="translate(33.209999084472656,0)"><g><rect fill="#000000" fill-opacity="0" stroke-width="2" x="0" y="0" width="112.5" height="118.71847364977523" class="image-rect"></rect> <svg filter="url(#colors8027291014)" x="0" y="0" width="112.5" height="118.71847364977523" filtersec="colorsf6544525127" class="image-svg-svg primary" style="overflow: visible;"><svg xmlns="http://www.w3.org/2000/svg" data-name="Layer 1" viewBox="10.859999656677246 8 80.13999938964844 84.56999969482422" x="0px" y="0px"><title>Artboard 4</title><path d="M26,34.26l13-4V12.18l.14,0-.14,0V12h-.32L25,8,11.32,12H11v.09l-.14,0,.14,0V30.3l13,4v3L11.34,41H11v.1l-.14,0,.14,0V59.31l13,3.95v3L11.37,70H11v.11l-.14,0,.14,0V88.31l14,4.26,14-4.26V70.19l.14,0-.14,0V70h-.37L26,66.3v-3l13-3.95V41.18l.14,0-.14,0V41h-.34L26,37.29ZM25,10.08l7,2.05-7,2.06-7-2.06ZM13,12.76l12,3.52,12-3.52V28.82L25,32.47,13,28.82ZM37,86.83,25,90.48,13,86.83v-16l12,3.51,12-3.51ZM32,70.15l-7,2.06-7-2.06,6-1.77V70h2V68.38Zm5-12.33L25,61.48,13,57.82v-16l12,3.51,12-3.51ZM32,41.14,25,43.2l-7-2.06,6-1.76V41h2V39.38Z"></path><path d="M58,38A11,11,0,1,0,69,49,11,11,0,0,0,58,38Zm0,20a9,9,0,1,1,9-9A9,9,0,0,1,58,58Z"></path><path d="M58,41a8,8,0,1,0,8,8A8,8,0,0,0,58,41Zm0,14a6,6,0,1,1,6-6A6,6,0,0,1,58,55Z"></path><path d="M80,70A11,11,0,1,0,91,81,11,11,0,0,0,80,70Zm0,20a9,9,0,1,1,9-9A9,9,0,0,1,80,90Z"></path><path d="M80,73a8,8,0,1,0,8,8A8,8,0,0,0,80,73Zm0,14a6,6,0,1,1,6-6A6,6,0,0,1,80,87Z"></path><path d="M80,18A11,11,0,1,0,91,29,11,11,0,0,0,80,18Zm0,20a9,9,0,1,1,9-9A9,9,0,0,1,80,38Z"></path><path d="M80,21a8,8,0,1,0,8,8A8,8,0,0,0,80,21Zm0,14a6,6,0,1,1,6-6A6,6,0,0,1,80,35Z"></path><rect x="48" y="11" width="2" height="11"></rect><rect x="48" y="24" width="2" height="4"></rect><rect x="48" y="30" width="2" height="3"></rect><rect x="57" y="30" width="2" height="5"></rect><rect x="57" y="22" width="2" height="6"></rect><rect x="57" y="70" width="2" height="11"></rect><rect x="57" y="84" width="2" height="5"></rect><rect x="48" y="60" width="2" height="7"></rect><rect x="48" y="69" width="2" height="8"></rect><rect x="48" y="79" width="2" height="3"></rect><rect x="57" y="64" width="2" height="3"></rect><rect x="79" y="58" width="2" height="9"></rect><rect x="79" y="50" width="2" height="5"></rect><rect x="79" y="45" width="2" height="3"></rect><rect x="88" y="41" width="2" height="9"></rect><rect x="88" y="53" width="2" height="3"></rect><rect x="88" y="13" width="2" height="6"></rect><rect x="79" y="13" width="2" height="3"></rect><rect x="88" y="8" width="2" height="3"></rect><rect x="67" y="17" width="2" height="4"></rect><rect x="67" y="60" width="2" height="4"></rect><rect x="67" y="66" width="2" height="6"></rect><rect x="79" y="8" width="2" height="3"></rect><rect x="57" y="14" width="2" height="4"></rect></svg></svg> <defs><filter id="colors8027291014"><feColorMatrix type="matrix" values="0 0 0 0 0  0 0 0 0 0.60546875  0 0 0 0 0.99609375  0 0 0 1 0" class="icon-fecolormatrix"></feColorMatrix></filter> <filter id="colorsf6544525127"><feColorMatrix type="matrix" values="0 0 0 0 0.99609375  0 0 0 0 0.99609375  0 0 0 0 0.99609375  0 0 0 1 0" class="icon-fecolormatrix"></feColorMatrix></filter> <filter id="colorsb5104377899"><feColorMatrix type="matrix" values="0 0 0 0 0  0 0 0 0 0  0 0 0 0 0  0 0 0 1 0" class="icon-fecolormatrix"></feColorMatrix></filter></defs></g></g> <g transform="translate(0,50.93923759460449)"><g data-gra="path-name" fill-rule="" class="tp-name"><g transform="scale(1)"><g><path d="M14.03-4.15L11.95-4.15 14.59-1.78 13.25-0.28 11.08-2.22 11.08-0.92 8.58-0.92 8.58-0.08 13.2-0.08 13.2 2.16 1.67 2.16 1.67-0.08 6.32-0.08 6.32-0.92 3.84-0.92 3.84-2.14 1.77-0.29 0.42-1.78 3.06-4.15 0.88-4.15 0.88-6.44 2.77-6.44 2.77-10.77 1.31-10.77 1.31-13.12 2.77-13.12 2.77-13.82 5.22-13.82 5.22-13.12 9.6-13.12 9.6-13.82 12.1-13.82 12.1-13.12 13.57-13.12 13.57-10.77 12.1-10.77 12.1-6.44 14.03-6.44 14.03-4.15ZM5.22-5.98L9.6-5.98 9.6-6.78 5.22-6.78 5.22-5.98ZM5.22-8.94L5.22-8.17 9.6-8.17 9.6-8.94 5.22-8.94ZM5.22-11.17L5.22-10.36 9.6-10.36 9.6-11.17 5.22-11.17ZM8.58-2.85L10.36-2.85 8.92-4.15 6.08-4.15 4.64-2.85 6.31-2.85 6.31-3.58 8.58-3.58 8.58-2.85ZM15.96-7.96L21.32-7.96 21.32-10.7 16.85-10.7 16.85-13.57 28.12-13.57 28.12-10.7 24.1-10.7 24.1-7.96 29.06-7.96 29.06-5.08 24.1-5.08 24.1 1.91 19.2 1.91 19.2-1.1 21.32-1.1 21.32-5.08 15.96-5.08 15.96-7.96ZM31.23-13.57L43.65-13.57 43.65-10.74 40.75-10.74 42.83-8.85 40.35-6.11 43.28-2.98 41.27-1.12 38.5-4.09 35.76-1.07 33.68-2.95 33.68-0.96 43.78-0.96 43.78 1.91 31.23 1.91 31.23-13.57ZM38.4-8.21L40.7-10.74 33.68-10.74 33.68-2.98 36.57-6.16 34.17-8.71 36.18-10.59 38.4-8.21ZM59.04-4.02L55.39-4.02 59.71 0.29 57.71 2.29 53.42-1.99 52.64 2.19 50.51 1.78 50.85-0.05 46.25 1.46 45.31-1.36 46.98-1.91 46.98-6.83 45.94-6.83 45.94-9.83 46.98-9.83 46.98-13.9 49.22-13.9 49.22-9.83 50.06-9.83 50.06-6.83 49.22-6.83 49.22-2.66 50.06-2.94 50.9-0.36 51.6-4.02 50.17-4.02 50.17-6.75 52.12-6.75 52.57-9.13 50.66-9.13 50.66-11.77 53.06-11.77 53.48-13.96 55.61-13.57 55.26-11.77 58.33-11.77 58.33-6.75 59.04-6.75 59.04-4.02ZM54.76-9.13L54.32-6.75 56.17-6.75 56.17-9.13 54.76-9.13ZM68.29-13.12L67.05-9.54 65.17-10.18 66.41-13.77 68.29-13.12ZM68.27-10.01L68.27-12.5 69.39-12.5 69.76-14.04 71.72-13.56 71.45-12.5 74.06-12.5 74.06-10.01 70.86-10.01 70.38-7.99 70.74-7.99 70.74-9.42 72.39-9.42 72.39-8.32 73.83-8.32 73.83-5.84 72.39-5.84 72.39-4.57 74.21-4.57 74.21-2.03 72.39-2.03 72.39-0.84 70.23-0.84 70.23-2.03 68.16-2.03 68.16-4.57 70.23-4.57 70.23-5.84 68.32-5.84 68.32-7.99 68.81-10.01 68.27-10.01ZM67.39-1.17L74.68-0.08 74.29 2.43 67.15 1.36 67.05 2.42 65.34 2.17 65.48 0.71 62.48 2.32 61.51 0.49 62.17 0.13 62.17-2.87 61.12-2.87 61.12-5.37 62.17-5.37 62.17-6.6 61.41-6.6 61.41-8.45 60.34-8.84 62.19-14.11 64.28-13.39 64.07-12.79 65.01-12.79 65.01-10.26 63.19-10.26 62.81-9.16 64.82-9.16 64.82-6.6 64.04-6.6 64.04-5.37 65.04-5.37 65.04-2.87 64.04-2.87 64.04-0.86 64.77-1.26 65.55 0.16 66.13-6.08 65.35-6.08 65.35-8.76 67.86-8.76 67.86-6.08 67.39-1.17ZM83.92 2.29L83.92-0.62 86.4-0.62 86.4-5.48 84.32-2.24 82.18-3.6 84.54-7.3 86.4-6.1 86.4-8.82 84.54-8.82 84.02-7.51 82.14-8.25 82.14 1.83 76.23 1.83 76.23-11.53 77.77-11.53 78.11-13.83 80.63-13.46 80.34-11.53 82.14-11.53 82.14-9.65 83.85-13.95 86.21-13.02 85.67-11.64 88.77-11.64 88.77 2.29 83.92 2.29ZM79.98-1.09L79.98-3.49 78.55-3.49 78.55-1.09 79.98-1.09ZM78.55-6.37L79.98-6.37 79.98-8.64 78.55-8.64 78.55-6.37ZM98.98-3.79L98.98-2.01 103.56 0.79 102.45 2.59 97.51-0.44 93 2.58 91.75 0.73 96.18-2.24 96.18-3.79 94.59-3.79 94.59-1.39 92.32-1.39 92.32-5.9 95.24-5.9 94.36-6.79 98.34-10.77 97.44-10.77 96.58-9.13 94.64-10.15 96.81-14.25 98.76-13.23 98.63-12.99 103.83-12.99 103.83-10.75 102.81-8.84 101.09-9.75 101.63-10.77 99.26-10.77 100.35-9.68 100.1-9.44 104.17-7.54 103.22-5.43 102.86-5.58 102.86-1.49 100.54-1.49 100.54-3.79 98.98-3.79ZM102.16-5.9L98.34-7.67 96.57-5.9 102.16-5.9ZM94.9-12.13L93.58-10.17 91.1-11.82 92.42-13.78 94.9-12.13ZM95.5-8.04L91.91-6.24 90.83-8.42 94.41-10.22 95.5-8.04ZM107.89-5.76L105.68-6.79 107.12-9.83 109.33-8.77 107.89-5.76ZM107.89 2.01L105.62 1.64 106.72-4.9 108.97-4.52 107.89 2.01ZM116.51-2.04L117.99-2.63 119.4 0.97 117.66 1.64 116.51-1.31 116.51 2.25 113.58 2.25 113.58-0.32 114.44-0.32 114.44-3.03 112.3-3.03 112.3-10.09 113.9-10.09 114.15-11.03 111.91-11.01 111.32 0.52 112.44-2.82 114.13-2.25 112.77 1.83 111.28 1.33 111.24 2.21 108.96 2.09 109.75-13.52 109.77-13.52 109.77-13.54 119.03-13.67 119.06-11.11 116.53-11.08 116.27-10.1 118.57-10.1 118.57-3.03 116.51-3.03 116.51-2.04ZM114.29-8.14L114.29-7.43 116.51-7.43 116.51-8.14 114.29-8.14ZM114.29-5.84L114.29-5.06 116.51-5.06 116.51-5.84 114.29-5.84ZM107.98-10.01L105.88-11.22 107.43-13.91 109.54-12.7 107.98-10.01ZM120.73-5.81L123.66-5.81 123.66-8.72 121.41-8.72 121.41-11.35 123.66-11.35 123.66-13.91 126.16-13.91 126.16-11.35 128.85-11.35 128.85-13.91 131.35-13.91 131.35-11.35 133.62-11.35 133.62-8.72 131.35-8.72 131.35-5.81 134.29-5.81 134.29-3.1 130.28-3.1 134.11 0.23 132.36 2.25 128.16-1.39 129.63-3.1 125.42-3.1 126.96-1.15 122.72 2.22 121.05 0.13 125.09-3.08 120.73-3.08 120.73-5.81ZM126.16-8.72L126.16-5.81 128.85-5.81 128.85-8.72 126.16-8.72ZM139.61 0.21L141.47 0.21 141.47-1.02 135.96-1.02 135.96-3.06 141.47-3.06 141.47-3.41 141.54-3.41 143.56-4.15 136.96-4.15 136.96-6.13 147.99-6.13 147.99-4.15 145.02-3.06 149.08-3.06 149.08-1.02 144-1.02 144 2.29 139.61 2.29 139.61 0.21ZM149.01-12.97L149.01-10.75 135.92-10.75 135.92-12.97 140.77-12.97 140.77-13.95 143.79-13.95 143.79-12.97 149.01-12.97ZM137.45-10.23L147.5-10.23 147.5-6.68 137.45-6.68 137.45-10.23ZM145.22-8.08L145.22-8.84 139.82-8.84 139.82-8.08 145.22-8.08ZM156.24 2.04L156.24-2.9 150.84-2.9 150.84-5.71 156.24-5.71 156.24-10.93 151.39-10.93 151.39-13.72 163.62-13.72 163.62-10.93 158.74-10.93 158.74-5.71 164.16-5.71 164.16-2.9 158.74-2.9 158.74 2.04 156.24 2.04ZM153.57-5.95L151.52-7.28 153.79-10.72 155.82-9.39 153.57-5.95ZM161.51-5.95L159.26-9.39 161.29-10.72 163.56-7.28 161.51-5.95ZM170.69-14.04L172.7-12.42 170.22-9.36 174.16-9.55 172.91-10.98 174.78-12.63 179.34-7.46 177.45-5.82 176.46-6.94 165.79-6.41 165.66-9.13 166.75-9.19 170.69-14.04ZM166.9 2.38L166.9-5.43 177.75-5.43 177.75 2.38 166.9 2.38ZM175.26-0.31L175.26-2.79 169.33-2.79 169.33-0.31 175.26-0.31Z" transform="translate(-0.42000001668930054, 14.25)"></path></g> <!----> <!----> <!----> <!----> <!----> <!----> <!----></g></g> <!----></g></g></g><defs v-gra="od"></defs></svg>