<svg data-v-70b83f88="" version="1.0" xmlns="http://www.w3.org/2000/svg" xmlns:xlink="http://www.w3.org/1999/xlink" width="100%" height="100%" viewBox="0 0 340.000000 250.000000" preserveAspectRatio="xMidYMid meet" color-interpolation-filters="sRGB" style="margin: auto;">   <g data-v-70b83f88="" fill="#ec7210" class="icon-text-wrapper icon-svg-group iconsvg" transform="translate(80.43000030905009,85.26499938964844)"><g class="iconsvg-imagesvg" transform="translate(59.56999969482422,0)"><g><rect fill="#ec7210" fill-opacity="0" stroke-width="2" x="0" y="0" width="60" height="60" class="image-rect"></rect> <svg filter="url(#colors535709434)" x="0" y="0" width="60" height="60" filtersec="colorsf7175587208" class="image-svg-svg primary" style="overflow: visible;"><svg xmlns="http://www.w3.org/2000/svg" viewBox="7.999965667724609 8.99996566772461 83.00006103515625 83.00007629394531" x="0px" y="0px"><title>Artboard 17</title><path d="M13,37V48.59A4.53,4.53,0,0,0,17.83,53H21a1,1,0,0,0,0-2H17.83A2.57,2.57,0,0,1,15,48.59V37h9v7a1,1,0,0,0,2,0V37h4.68A5.31,5.31,0,0,0,36,32H48a4.94,4.94,0,0,0,5-4.71V24a1,1,0,0,0-2,0v3.29A3,3,0,0,1,48,30H36V21h8a1,1,0,0,0,0-2H36V14.32A5.33,5.33,0,0,0,30.68,9H13.32A5.33,5.33,0,0,0,8,14.32V31.68A5.31,5.31,0,0,0,13,37ZM10,14.32A3.33,3.33,0,0,1,13.32,11H30.68A3.33,3.33,0,0,1,34,14.32V31.68A3.33,3.33,0,0,1,30.68,35H13.32A3.33,3.33,0,0,1,10,31.68Z"></path><path d="M85.68,9H68.32A5.31,5.31,0,0,0,63,14H51c-2.86,0-5,1.86-5,4.33V22a1,1,0,0,0,2,0V18.33C48,16.82,49.55,16,51,16H63v9H55a1,1,0,0,0,0,2h8v4.68a5.32,5.32,0,0,0,4,5.15A1,1,0,0,0,67,37V48.7c0,2.69,2.64,4.3,5.2,4.3H76a1,1,0,0,0,0-2H72.2c-1.57,0-3.2-.86-3.2-2.3V37h9v7a1,1,0,0,0,2,0V37h5.68A5.33,5.33,0,0,0,91,31.68V14.32A5.33,5.33,0,0,0,85.68,9ZM89,31.68A3.33,3.33,0,0,1,85.68,35H68.32A3.33,3.33,0,0,1,65,31.68V14.32A3.33,3.33,0,0,1,68.32,11H85.68A3.33,3.33,0,0,1,89,14.32Z"></path><path d="M86,64s0,0,0,0V51.73A4.79,4.79,0,0,0,81.16,47H78a1,1,0,0,0,0,2h3.16A2.79,2.79,0,0,1,84,51.73V64H75V56a1,1,0,0,0-2,0v8H68.32a5.32,5.32,0,0,0-5.15,4A1,1,0,0,0,63,68H51a5.1,5.1,0,0,0-5,4.92V76a1,1,0,0,0,2,0V72.92A3.12,3.12,0,0,1,51,70H63v9H55a1,1,0,0,0,0,2h8v5.68A5.33,5.33,0,0,0,68.32,92H85.68A5.33,5.33,0,0,0,91,86.68V69.32A5.31,5.31,0,0,0,86,64Zm3,22.65A3.33,3.33,0,0,1,85.68,90H68.32A3.33,3.33,0,0,1,65,86.68V69.32A3.33,3.33,0,0,1,68.32,66H85.68A3.33,3.33,0,0,1,89,69.32Z"></path><path d="M52,77a1,1,0,0,0-1,1v3.88A3.33,3.33,0,0,1,48,85H36V76h8a1,1,0,0,0,0-2H36V69.32a5.32,5.32,0,0,0-4-5.15A1,1,0,0,0,32,64V51.62C32,48.86,29.3,47,26.79,47H23a1,1,0,0,0,0,2h3.79C28.3,49,30,50.12,30,51.62V64H21V56a1,1,0,0,0-2,0v8H13.32A5.33,5.33,0,0,0,8,69.32V86.68A5.33,5.33,0,0,0,13.32,92H30.68A5.31,5.31,0,0,0,36,87H48a5.34,5.34,0,0,0,5-5.12V78A1,1,0,0,0,52,77ZM34,86.68A3.33,3.33,0,0,1,30.68,90H13.32A3.33,3.33,0,0,1,10,86.68V69.32A3.33,3.33,0,0,1,13.32,66H30.68A3.33,3.33,0,0,1,34,69.32Z"></path><circle cx="49.2" cy="42.7" r="5.78"></circle><path d="M39,56.51V63H60V56.51A6.85,6.85,0,0,0,53.39,50H45C41.6,50,39,53.1,39,56.51Z"></path><circle cx="76.42" cy="17.79" r="4.19"></circle><path d="M79.45,23H73.38A4.68,4.68,0,0,0,69,27.8V33H84V27.8A4.82,4.82,0,0,0,79.45,23Z"></path><circle cx="21.42" cy="17.79" r="4.19"></circle><path d="M29,27.8A4.82,4.82,0,0,0,24.45,23H18.38A4.68,4.68,0,0,0,14,27.8V33H29Z"></path><circle cx="21.42" cy="72.79" r="4.19"></circle><path d="M24.45,78H18.38A4.68,4.68,0,0,0,14,82.8V88H29V82.8A4.82,4.82,0,0,0,24.45,78Z"></path><circle cx="77.42" cy="72.79" r="4.19"></circle><path d="M80.45,78H74.38A4.68,4.68,0,0,0,70,82.8V88H85V82.8A4.82,4.82,0,0,0,80.45,78Z"></path></svg></svg> <defs><filter id="colors535709434"><feColorMatrix type="matrix" values="0 0 0 0 0.9375  0 0 0 0 0.7578125  0 0 0 0 0.265625  0 0 0 1 0" class="icon-fecolormatrix"></feColorMatrix></filter> <filter id="colorsf7175587208"><feColorMatrix type="matrix" values="0 0 0 0 0.99609375  0 0 0 0 0.99609375  0 0 0 0 0.99609375  0 0 0 1 0" class="icon-fecolormatrix"></feColorMatrix></filter> <filter id="colorsb9953070007"><feColorMatrix type="matrix" values="0 0 0 0 0  0 0 0 0 0  0 0 0 0 0  0 0 0 1 0" class="icon-fecolormatrix"></feColorMatrix></filter></defs></g></g> <g transform="translate(0,67.00000381469727)"><g data-gra="path-name" fill-rule="" class="tp-name iconsvg-namesvg"><g transform="scale(1)"><g><path d="M3.59-2.26L5.46-2.26 5.46-3.41 7.3-3.41 7.3-2.26 9-2.26Q8.22-2.98 7.64-4.02L7.64-4.02 5.55-4.02Q4.65-2.98 3.59-2.26L3.59-2.26ZM4.85-5.77L4.85-4.9 7.88-4.9 7.88-5.77 4.85-5.77ZM7.88-9.04L4.85-9.04 4.85-8.14 7.88-8.14 7.88-9.04ZM4.85-7.42L4.85-6.49 7.88-6.49 7.88-7.42 4.85-7.42ZM9.4-1.41L7.3-1.41 7.3-0.14 11.75-0.14 11.64 0.69 1.26 0.69 1.2-0.14 5.46-0.14 5.46-1.41 3.41-1.41 3.36-2.11Q2.17-1.36 0.89-0.93L0.89-0.93 0.26-1.9Q1.97-2.7 3.06-4.02L3.06-4.02 0.66-4.02 0.58-4.9 2.93-4.9 2.93-9.04 1.08-9.04 1-9.9 2.93-9.9 2.93-10.88 4.85-10.88 4.85-9.9 7.88-9.9 7.88-11.04 9.81-11.04 9.81-9.9 11.98-9.9 11.87-9.04 9.81-9.04 9.81-4.9 12.43-4.9 12.32-4.02 9.08-4.02Q10.29-2.78 12.6-2.42L12.6-2.42 11.89-0.77Q10.52-1.11 9.45-1.89L9.45-1.89 9.4-1.41ZM25.28-5.68L25.16-4.65 20.29-4.65 20.29-0.84Q20.29 0.15 19.68 0.67L19.68 0.67Q19.16 1.12 18.27 1.12L18.27 1.12 16.17 1.12 16.06 0.22 18.23 0.22 18.23-4.65 13.32-4.65 13.24-5.68 18.23-5.68 18.23-9.05 14.67-9.05 14.59-10.07 23.93-10.07 23.82-9.05 20.29-9.05 20.29-5.68 25.28-5.68ZM29.33-0.49L37.74-0.49 37.63 0.45 29.57 0.45Q27.17 0.45 27.17-1.8L27.17-1.8 27.17-9.84 37.13-9.84 37.03-8.87 29.33-8.87 29.33-0.49ZM30.38-0.98L29.47-1.92Q30.87-3.2 32.08-4.78L32.08-4.78 29.8-7.21 30.65-8.14 33.02-6.08Q33.79-7.23 34.48-8.59L34.48-8.59 36.5-7.69Q35.49-5.98 34.48-4.76L34.48-4.76Q36.13-3.25 36.77-2.65L36.77-2.65 35.43-1.12 33.31-3.45Q32-2.11 30.38-0.98L30.38-0.98ZM43.41-3.51L43.6-2.15Q40.72-1.11 39.12-0.6L39.12-0.6 38.75-2.62Q39.78-2.8 40.31-2.91L40.31-2.91 40.31-6.88 39.05-6.88 38.98-7.89 40.31-7.89 40.31-10.66 42.24-10.66 42.24-7.89 43.46-7.89 43.37-6.88 42.24-6.88 42.24-3.27 43.41-3.51ZM48.14-7.91L47.26-7.91Q47.19-6.21 46.93-4.91L46.93-4.91 48.14-4.91 48.14-7.91ZM50.97-3.91L47.74-3.91Q49.11-1.88 51.44-0.62L51.44-0.62 49.8 1.22Q47.69-0.18 46.41-3.09L46.41-3.09Q45.42-0.45 42.78 1.31L42.78 1.31 41.81 0.63Q44.04-1.25 44.72-3.91L44.72-3.91 43.15-3.91 43.08-4.91 44.92-4.91Q45.12-6.2 45.14-7.91L45.14-7.91 43.61-7.91 43.53-8.9 45.15-8.9Q45.15-9.51 45.13-10.98L45.13-10.98 47.34-10.98 47.3-8.9 49.47-8.9Q50.04-8.86 50.04-8.28L50.04-8.28 50.04-4.91 51.07-4.91 50.97-3.91ZM58.45-7.83L56.88-7.16 55.94-9.8 57.01-10.21Q58.27-8.15 58.45-7.83L58.45-7.83ZM60.69-6.29L60.69-7.77 60.18-6.29 60.69-6.29ZM60.53-5.39L59.46-5.39Q58.68-5.39 58.6-5.94L58.6-5.94Q58.59-5.91 58.59-5.85L58.59-5.85 58.58-5.76Q58.2-3.54 57.59-1.72L57.59-1.72Q60.02-0.32 64.09-1.09L64.09-1.09 63.89 1.08Q59.99 1.53 57.15-0.55L57.15-0.55Q56.74 0.41 56.43 1L56.43 1 55.25 0.46Q55.61-0.57 55.81-1.4L55.81-1.4Q54.51-0.27 53.05 0.86L53.05 0.86 52.26-0.62 53.04-1.07 53.04-3.6 51.87-3.6 51.81-4.49 53.04-4.49 53.04-5.98 52.32-5.98 52.29-6.38 51.57-6.81Q52.32-8.24 53.16-10.97L53.16-10.97 55.26-10.58Q54.87-9.77 54.55-9.19L54.55-9.19 55.77-9.19 55.7-8.27 54-8.27Q53.58-7.56 53.06-6.85L53.06-6.85 55.58-6.85 55.49-5.98 54.71-5.98 54.71-4.49 55.84-4.49 55.76-3.6 54.71-3.6 54.71-2.11 55.39-2.55 55.89-1.67Q56.33-3.5 56.43-5.55L56.43-5.55 55.84-5.55 55.77-6.53 58-6.53Q58.51-6.53 58.59-6.11L58.59-6.11Q58.59-6.39 58.68-6.74L58.68-6.74 59.14-8.58 58.41-8.58 58.35-9.48 59.4-9.48 59.81-10.99 61.66-10.84 61.24-9.48 63.67-9.48 63.59-8.58 60.96-8.58 60.75-7.97 62.29-7.97 62.29-6.29 63.76-6.29 63.68-5.39 62.31-5.39 62.31-3.99 63.87-3.99 63.78-3.07 62.31-3.07 62.31-1.11 60.53-1.11 60.53-3.07 58.49-3.07 58.42-3.99 60.53-3.99 60.53-5.39ZM66.91-0.8L68.52-0.8 68.52-4.05 66.91-4.05 66.91-0.8ZM68.52-5L68.52-7.66 66.91-7.66 66.91-5 68.52-5ZM73.02-8.56L75.45-8.56Q75.78-8.56 76-8.36L76-8.36Q76.23-8.14 76.23-7.82L76.23-7.82 76.23-0.63Q76.23 1.11 74.33 1.11L74.33 1.11 71.83 1.11 71.74 0.26 74.26 0.26 74.26-3.12 72.72-1.9Q71.78-3.38 70.82-4.82L70.82-4.82 71.88-5.59Q73.66-3.88 74.26-3.21L74.26-3.21 74.26-7.51 72.5-7.51Q71.97-6.51 71.23-5.39L71.23-5.39 70.37-5.81 70.37 0.21 65.08 0.21 65.08-8.67 66.34-8.67Q66.48-9.54 66.57-10.83L66.57-10.83 68.86-10.54Q68.54-9.67 68.04-8.67L68.04-8.67 68.89-8.67Q69.74-8.67 70.06-8.38L70.06-8.38Q70.37-8.13 70.37-7.43L70.37-7.43 70.37-6.74Q70.78-7.95 71.55-11.02L71.55-11.02 73.89-10.63Q73.53-9.66 73.02-8.56L73.02-8.56ZM85.56-6.21L85.87-6.29Q86.13-5.28 86.49-4.37L86.49-4.37Q86.77-5.62 86.9-7.6L86.9-7.6 86.22-7.6Q85.98-7.03 85.56-6.21L85.56-6.21ZM82.25-8.77L81.33-8.77 81.33-7.53Q81.85-8.18 82.25-8.77L82.25-8.77ZM89.58-7.6L89-7.6Q88.65-4.29 87.61-2.3L87.61-2.3Q88.55-0.96 89.95 0L89.95 0 88.35 1.27Q87.3 0.39 86.55-0.73L86.55-0.73Q85.59 0.4 84.23 1.31L84.23 1.31 83.46 0.57Q84.99-0.69 85.76-2.22L85.76-2.22Q85.26-3.38 84.91-4.99L84.91-4.99 84.66-4.56 83.6-5.09Q84.28-6.8 84.97-9.75L84.97-9.75Q84.09-8.32 83.21-7.25L83.21-7.25 84.01-7.25 83.92-6.35 82.43-6.35Q81.84-5.72 81.28-5.22L81.28-5.22 82.9-5.22Q83.51-5.22 83.71-4.86L83.71-4.86Q83.91-4.53 83.57-4.19L83.57-4.19Q83.12-3.72 82.43-3.24L82.43-3.24 82.43-2.78Q83.1-2.87 84.46-3.07L84.46-3.07 84.65-1.88Q83.4-1.56 82.43-1.34L82.43-1.34 82.43-0.41Q82.43 0.5 81.91 0.84L81.91 0.84Q81.51 1.08 80.65 1.08L80.65 1.08 79.08 1.08 78.94 0.41 80.61 0.41 80.61-0.91 77.89-0.33 77.66-2.17Q78.54-2.26 80.61-2.53L80.61-2.53 80.61-3.56 80.79-3.56Q80.87-3.7 81.04-3.96L81.04-3.96 81.31-4.4 80.33-4.4Q79.19-3.47 77.97-2.75L77.97-2.75 77.27-3.63Q78.89-4.81 80.32-6.35L80.32-6.35 77.75-6.35 77.68-7.25 79.65-7.25 79.65-8.77 78.31-8.77 78.25-9.67 79.65-9.67 79.65-10.93 81.46-10.93 81.46-9.67 82.53-9.67 82.48-9.09Q83.1-10.07 83.37-10.57L83.37-10.57 84.97-9.76 85.26-11.03 87.38-10.71Q87.07-9.72 86.64-8.63L86.64-8.63 89.67-8.63 89.58-7.6ZM97.75-9.09L95.86-8.42Q95.57-9.59 95.25-10.71L95.25-10.71 96.53-11.11 97.75-9.09ZM92.52-7.46L92.52-5.72 90.6-5.72 90.6-8.41 92.97-8.41 92.38-10.36 93.68-10.83Q94.82-9.17 94.95-8.95L94.95-8.95 93.59-8.41 98-8.41Q98.7-10.21 98.96-11.01L98.96-11.01 100.97-10.25Q100.35-9.22 99.72-8.41L99.72-8.41 101.57-8.41Q102.18-8.41 102.18-7.87L102.18-7.87 102.18-5.75 100.26-5.75 100.26-7.46 92.52-7.46ZM102.56-3.11L102.45-2.16 97.53-2.16 97.53-0.57Q97.53 0.44 96.94 0.84L96.94 0.84Q96.49 1.14 95.54 1.14L95.54 1.14 93.9 1.14 93.75 0.37 95.48 0.37 95.48-2.16 90.49-2.16 90.41-3.11 95.48-3.11 95.48-4.29 95.71-4.29Q96.48-4.85 96.9-5.18L96.9-5.18 93.01-5.18 92.94-6.12 99.17-6.12Q99.89-6.12 100.04-5.54L100.04-5.54Q100.2-4.98 99.64-4.64L99.64-4.64Q98.67-4.06 97.53-3.56L97.53-3.56 97.53-3.11 102.56-3.11ZM109.95-9.05L109.52-9.05Q108.85-8.14 108.1-7.43L108.1-7.43 107.09-8.07Q107.95-9.28 108.63-11.1L108.63-11.1 110.64-10.83Q110.39-10.38 110.12-9.95L110.12-9.95 114.51-9.95Q115.12-9.95 115.34-9.6L115.34-9.6Q115.55-9.28 115.25-8.91L115.25-8.91Q114.57-8.05 113.79-7.25L113.79-7.25 112.45-7.8Q112.5-7.95 112.69-8.4L112.69-8.4Q112.86-8.81 112.95-9.05L112.95-9.05 112.13-9.05Q112.02-8.63 111.81-8.11L111.81-8.11Q113.12-6.9 115.44-6.49L115.44-6.49 114.69-4.45Q112.54-5.07 111.06-6.9L111.06-6.9Q109.94-5.63 107.5-4.92L107.5-4.92 107.14-5.94Q108.5-6.52 109.14-7.29L109.14-7.29Q109.7-7.93 109.95-9.05L109.95-9.05ZM104.01-4.67L103.24-6.45Q104.67-7.14 106.2-7.89L106.2-7.89Q105.02-8.74 103.65-9.64L103.65-9.64 104.31-10.65 107.07-9.53 106.2-7.89 106.83-8.22 107.27-6.96Q105.75-5.81 104.01-4.67L104.01-4.67ZM108.08-3.57L110.28-3.57Q109.9-1.53 108.73-0.55L108.73-0.55Q107.31 0.67 103.87 1.2L103.87 1.2 103.54 0.09Q105.81-0.36 106.83-1.12L106.83-1.12 105.02-1.12 105.02-4.83 112.69-4.83Q113.34-4.83 113.34-4.23L113.34-4.23 113.34-1.29 111.36-1.29 111.36-3.93 106.93-3.93 106.93-1.2Q107.83-1.92 108.08-3.57L108.08-3.57ZM109.5-0.59L110.35-1.57 114.8-0.27 113.76 1.36Q111.7 0.37 109.5-0.59L109.5-0.59ZM117.84-5.03L118.99-4.24Q118.25-2.17 117.44-0.3L117.44-0.3 115.79-1.11 117.84-5.03ZM119.25-6.9L118.35-5.19Q117.33-5.95 115.95-6.92L115.95-6.92 116.61-7.96Q118.43-7.25 119.25-6.9L119.25-6.9ZM127.8-9.33L121.55-9.33Q121.42-5.68 120.91-3.55L120.91-3.55Q120.25-0.91 118.67 1.27L118.67 1.27 117.57 0.8Q119.43-2.57 119.46-9.23L119.46-9.23 118.67-7.87Q117.58-8.79 116.6-9.57L116.6-9.57 117.3-10.59 119.46-9.63 119.46-10.25 127.89-10.25 127.8-9.33ZM122.14-2.88L123.26-2.2Q122.34-0.6 121.58 0.59L121.58 0.59 120.15-0.48Q121.49-2.07 122.14-2.88L122.14-2.88ZM123.18-5.26L123.18-3.97 125.91-3.97 125.91-5.26 123.18-5.26ZM125.91-6.02L125.91-7.21 123.18-7.21 123.18-6.02 125.91-6.02ZM127.53-3.1L125.27-3.1 125.27-0.1Q125.27 0.67 124.73 0.95L124.73 0.95Q124.33 1.17 123.47 1.17L123.47 1.17 122.4 1.17 122.31 0.5 123.44 0.5 123.44-3.1 121.59-3.1 121.59-8.07 123.07-8.07Q123.12-8.45 123.17-9.27L123.17-9.27 125.37-9Q125.2-8.67 124.84-8.07L124.84-8.07 126.4-8.07Q127.02-8.07 127.27-7.86L127.27-7.86Q127.53-7.62 127.53-7.1L127.53-7.1 127.53-3.1ZM125.36-2.19L126.33-2.8Q127.95-1 128.31-0.55L128.31-0.55 126.89 0.45 125.36-2.19ZM133.92-7.34L133.92-4.24 136.21-4.24 136.21-7.34 133.92-7.34ZM141.09-4.24L140.97-3.23 136.74-3.23Q139.05-1.84 140.67-0.8L140.67-0.8 139.2 1.04Q138-0.1 135.71-2.15L135.71-2.15 136.7-3.23 132.97-3.23 134.34-1.75Q132.18-0.12 129.88 1.12L129.88 1.12 129.15 0.01Q130.54-1.14 132.62-3.23L132.62-3.23 129.01-3.23 128.93-4.24 131.89-4.24 131.89-7.34 129.77-7.34 129.69-8.36 131.89-8.36 131.89-10.88 133.92-10.88 133.92-8.36 136.21-8.36 136.21-10.98 138.33-10.98 138.33-8.36 140.34-8.36 140.21-7.34 138.33-7.34 138.33-4.24 141.09-4.24ZM153.78-9.93L153.66-9.03 142.06-9.03 141.98-9.93 146.94-9.93 146.94-10.9 148.98-10.9 148.98-9.93 153.78-9.93ZM150.16-6.02L150.16-7.52 145.52-7.52 145.52-6.02 150.16-6.02ZM143.6-8.33L150.89-8.33Q152.07-8.33 152.07-7.39L152.07-7.39 152.07-5.21 143.6-5.21 143.6-8.33ZM153.94-2.13L153.82-1.25 149.17-1.25 149.17-0.46Q149.17 0.54 148.58 0.9L148.58 0.9Q148.15 1.16 147.18 1.16L147.18 1.16 145 1.16 144.87 0.46 147.11 0.46 147.11-1.25 142.16-1.25 142.08-2.13 147.11-2.13 147.11-3 148.13-3 149.16-3.51 143.28-3.51 143.2-4.41 150.88-4.41 150.9-4.42 151.62-4.42Q152.25-4.42 152.38-3.84L152.38-3.84Q152.51-3.27 151.98-3.05L151.98-3.05Q150.76-2.53 149.49-2.13L149.49-2.13 153.94-2.13ZM166.9-4.36L166.77-3.3 161.73-3.3 161.73 1.21 159.65 1.21 159.65-3.3 154.76-3.3 154.67-4.36 159.65-4.36 159.65-9.01 155.92-9.01 155.83-10.03 165.7-10.03 165.59-9.01 161.73-9.01 161.73-4.36 166.9-4.36ZM156.09-7.79L157.31-8.32Q158.9-6.08 159.35-5.37L159.35-5.37 157.53-4.47 156.09-7.79ZM163.4-4.46L162.31-5.1Q163.14-6.75 163.79-8.38L163.79-8.38 165.69-7.56Q164.67-5.94 163.4-4.46L163.4-4.46ZM177-5.57L169.5-5.57Q168.48-5.58 168.29-6.27L168.29-6.27Q168.09-6.96 168.85-7.71L168.85-7.71Q171.33-10.2 172.14-11.04L172.14-11.04 173.97-9.72Q172.35-8.22 170.42-6.6L170.42-6.6 176.26-6.6 174.55-8.92 175.69-9.71Q178.14-7.32 179.4-5.97L179.4-5.97 177.66-4.64 177-5.57ZM175.94-0.41L175.94-3.38 171.19-3.38 171.19-0.41 175.94-0.41ZM169.05-4.41L176.52-4.41Q178.1-4.41 178.1-3.18L178.1-3.18 178.1 0.62 169.05 0.62 169.05-4.41Z" transform="translate(-0.25999999046325684, 11.109999656677246)"></path></g> <!----> <!----> <!----> <!----> <!----> <!----> <!----></g></g> <!----></g></g><defs v-gra="od"></defs></svg>