<svg data-v-70b83f88="" version="1.0" xmlns="http://www.w3.org/2000/svg" xmlns:xlink="http://www.w3.org/1999/xlink" width="100%" height="100%" viewBox="0 0 340.000000 250.000000" preserveAspectRatio="xMidYMid meet" color-interpolation-filters="sRGB" style="margin: auto;">   <g data-v-70b83f88="" class="iconmbgsvg" transform="translate(113.75,65.64076232910156)"><g fill="#000000" hollow-target="textNormalTran"><g opacity="0.55"><g><rect fill="#000000" fill-opacity="0" stroke-width="2" x="0" y="0" width="112.5" height="118.71847364977523" class="image-rect"></rect> <svg filter="url(#colors6611558148)" x="0" y="0" width="112.5" height="118.71847364977523" filtersec="colorsf2924934850" class="image-svg-svg primary" style="overflow: visible;"><svg xmlns="http://www.w3.org/2000/svg" data-name="Layer 1" viewBox="10.859999656677246 8 80.13999938964844 84.56999969482422" x="0px" y="0px"><title>Artboard 4</title><path d="M26,34.26l13-4V12.18l.14,0-.14,0V12h-.32L25,8,11.32,12H11v.09l-.14,0,.14,0V30.3l13,4v3L11.34,41H11v.1l-.14,0,.14,0V59.31l13,3.95v3L11.37,70H11v.11l-.14,0,.14,0V88.31l14,4.26,14-4.26V70.19l.14,0-.14,0V70h-.37L26,66.3v-3l13-3.95V41.18l.14,0-.14,0V41h-.34L26,37.29ZM25,10.08l7,2.05-7,2.06-7-2.06ZM13,12.76l12,3.52,12-3.52V28.82L25,32.47,13,28.82ZM37,86.83,25,90.48,13,86.83v-16l12,3.51,12-3.51ZM32,70.15l-7,2.06-7-2.06,6-1.77V70h2V68.38Zm5-12.33L25,61.48,13,57.82v-16l12,3.51,12-3.51ZM32,41.14,25,43.2l-7-2.06,6-1.76V41h2V39.38Z"></path><path d="M58,38A11,11,0,1,0,69,49,11,11,0,0,0,58,38Zm0,20a9,9,0,1,1,9-9A9,9,0,0,1,58,58Z"></path><path d="M58,41a8,8,0,1,0,8,8A8,8,0,0,0,58,41Zm0,14a6,6,0,1,1,6-6A6,6,0,0,1,58,55Z"></path><path d="M80,70A11,11,0,1,0,91,81,11,11,0,0,0,80,70Zm0,20a9,9,0,1,1,9-9A9,9,0,0,1,80,90Z"></path><path d="M80,73a8,8,0,1,0,8,8A8,8,0,0,0,80,73Zm0,14a6,6,0,1,1,6-6A6,6,0,0,1,80,87Z"></path><path d="M80,18A11,11,0,1,0,91,29,11,11,0,0,0,80,18Zm0,20a9,9,0,1,1,9-9A9,9,0,0,1,80,38Z"></path><path d="M80,21a8,8,0,1,0,8,8A8,8,0,0,0,80,21Zm0,14a6,6,0,1,1,6-6A6,6,0,0,1,80,35Z"></path><rect x="48" y="11" width="2" height="11"></rect><rect x="48" y="24" width="2" height="4"></rect><rect x="48" y="30" width="2" height="3"></rect><rect x="57" y="30" width="2" height="5"></rect><rect x="57" y="22" width="2" height="6"></rect><rect x="57" y="70" width="2" height="11"></rect><rect x="57" y="84" width="2" height="5"></rect><rect x="48" y="60" width="2" height="7"></rect><rect x="48" y="69" width="2" height="8"></rect><rect x="48" y="79" width="2" height="3"></rect><rect x="57" y="64" width="2" height="3"></rect><rect x="79" y="58" width="2" height="9"></rect><rect x="79" y="50" width="2" height="5"></rect><rect x="79" y="45" width="2" height="3"></rect><rect x="88" y="41" width="2" height="9"></rect><rect x="88" y="53" width="2" height="3"></rect><rect x="88" y="13" width="2" height="6"></rect><rect x="79" y="13" width="2" height="3"></rect><rect x="88" y="8" width="2" height="3"></rect><rect x="67" y="17" width="2" height="4"></rect><rect x="67" y="60" width="2" height="4"></rect><rect x="67" y="66" width="2" height="6"></rect><rect x="79" y="8" width="2" height="3"></rect><rect x="57" y="14" width="2" height="4"></rect></svg></svg> <defs><filter id="colors6611558148"><feColorMatrix type="matrix" values="0 0 0 0 0.49609375  0 0 0 0 0.47265625  0 0 0 0 0.96484375  0 0 0 1 0" class="icon-fecolormatrix"></feColorMatrix></filter> <filter id="colorsf2924934850"><feColorMatrix type="matrix" values="0 0 0 0 0.99609375  0 0 0 0 0.99609375  0 0 0 0 0.99609375  0 0 0 1 0" class="icon-fecolormatrix"></feColorMatrix></filter> <filter id="colorsb121316764"><feColorMatrix type="matrix" values="0 0 0 0 0  0 0 0 0 0  0 0 0 0 0  0 0 0 1 0" class="icon-fecolormatrix"></feColorMatrix></filter></defs></g></g> <g transform="translate(56.25,59.35923767089844)"><g data-gra="path-name" fill-rule="" class="tp-name"><g transform="scale(1)"><g><path d="" transform="translate(0, 0)"></path></g> <!----> <!----> <!----> <!----> <!----> <!----> <!----></g></g> <!----></g></g></g><defs v-gra="od"></defs></svg>